# xmcd
#
# Track frame offsets:
#	150
#	9245
#	18952
#	30771
#	39630
#	49135
#	59250
#	68147
#	74072
#	82535
#	93201
#	105166
#	113185
#	122925
#	132190
#	141637
#	149671
#	157399
#	168161
#	178285
#	188790
#	199630
#	208976
#	218595
#	224538
#	235188
#	246990
#	254838
#	282252
#	291614
#	299513
#	307118
#	317446
#
# Disc length: 4364 seconds
# Revision: 2
# Processed by: cddbd v1.5.2PL0 Copyright (c) Steve Scherf et al.
# Submitted via: dBpowerAMP V12.0
#
DISCID=06110a21
DTITLE=Johnny Cash - Cash, The Complete Sun Masters disc 3
DYEAR=2008
DGENRE=Country
TTITLE0=Blue Train
TTITLE1=Born to Lose
TTITLE2=Thanks a Lot
TTITLE3=Katy Too
TTITLE4=It's Just About Time
TTITLE5=The Ways of a Woman in Love
TTITLE6=Life Goes on
TTITLE7=You Tell Me
TTITLE8=I Forgot to Remember to Forget
TTITLE9=I Just Thought You'd Like to Know
TTITLE10=You're the Nearest Thing to Heaven
TTITLE11=Sugartime
TTITLE12=The Story of a Broken Heart
TTITLE13=Down the Street to 301
TTITLE14=New Mexico
TTITLE15=I Can't Help It (If I'm Still in Love With You)
TTITLE16=Hey, Good Lookin'
TTITLE17=You Win Again
TTITLE18=I Could Never Be Ashamed of You
TTITLE19=Cold, Cold, Heart
TTITLE20=Fool's Hall of Fame
TTITLE21=New Mexico (undubbed)
TTITLE22=It's Just About Time (alternate)
TTITLE23=I Forgot to Remember to Forget (incomplete alternate)
TTITLE24=I Just Thought You'd Like to Know (undubbed)
TTITLE25=You're the Nearest Thing to Heaven (undubbed)
TTITLE26=Sugartime (alternate)
TTITLE27=The Story of a Broken Heart (alternate with false starts and studio chat)
TTITLE28=Down the Street to 301 (alternate)
TTITLE29=I Can't Help It (If I'm Still in Love With You) (undubbed)
TTITLE30=Hey, Good Lookin' (undubbed)
TTITLE31=You Win Again (undubbed)
TTITLE32=I Could Never Be Ashamed of You (undubbed)
EXTD=
EXTT0=
EXTT1=
EXTT2=
EXTT3=
EXTT4=
EXTT5=
EXTT6=
EXTT7=
EXTT8=
EXTT9=
EXTT10=
EXTT11=
EXTT12=
EXTT13=
EXTT14=
EXTT15=
EXTT16=
EXTT17=
EXTT18=
EXTT19=
EXTT20=
EXTT21=
EXTT22=
EXTT23=
EXTT24=
EXTT25=
EXTT26=
EXTT27=
EXTT28=
EXTT29=
EXTT30=
EXTT31=
EXTT32=
PLAYORDER=
